<?xml version="1.0" encoding="UTF-8"?>
<svg xmlns="http://www.w3.org/2000/svg" xmlns:xlink="http://www.w3.org/1999/xlink" width="40px" height="40px" viewBox="0 0 40 40" version="1.1">
<g id="surface1">
<path style=" stroke:none;fill-rule:nonzero;fill:rgb(0%,0%,0%);fill-opacity:1;" d="M 28.472656 26.351562 C 32.84375 21.734375 32.710938 14.464844 28.171875 10.007812 C 23.636719 5.554688 16.363281 5.554688 11.828125 10.007812 C 7.289062 14.464844 7.15625 21.734375 11.527344 26.351562 C 13.355469 23.4375 16.558594 21.664062 20 21.667969 C 23.441406 21.664062 26.644531 23.4375 28.472656 26.351562 Z M 13.976562 28.808594 L 20 34.832031 L 26.023438 28.808594 C 24.921875 26.480469 22.578125 24.996094 20 24.996094 C 17.421875 24.996094 15.078125 26.480469 13.976562 28.808594 Z M 20 39.546875 L 9.394531 28.941406 C 3.535156 23.082031 3.535156 13.585938 9.394531 7.726562 C 15.25 1.867188 24.75 1.867188 30.605469 7.726562 C 36.464844 13.585938 36.464844 23.082031 30.605469 28.941406 Z M 20 16.667969 C 20.921875 16.667969 21.667969 15.921875 21.667969 15 C 21.667969 14.078125 20.921875 13.332031 20 13.332031 C 19.078125 13.332031 18.332031 14.078125 18.332031 15 C 18.332031 15.921875 19.078125 16.667969 20 16.667969 Z M 20 20 C 17.238281 20 15 17.761719 15 15 C 15 12.238281 17.238281 10 20 10 C 22.761719 10 25 12.238281 25 15 C 25 17.761719 22.761719 20 20 20 Z M 20 20 "/>
</g>
</svg>
